# Blender v2.79 (sub 0) OBJ File: ''
# www.blender.org
mtllib fern_tree_top.mtl
o Plane
v 0.464452 -0.448328 0.599117
v 2.613894 1.456098 -0.291211
v -0.095223 -0.448328 -0.752057
v 2.054220 1.456098 -1.642385
v 0.013824 -0.491207 -0.005726
v 1.022497 0.929140 0.367967
v 2.418529 1.582533 -1.001788
v 0.462822 0.929140 -0.983207
v 0.699192 1.005916 -0.289615
v 1.822398 1.353601 0.036637
v 1.262723 1.353601 -1.314537
v 1.555819 1.468002 -0.644441
v -0.050602 0.265284 -0.770539
v 0.509073 0.265284 0.580634
v 0.100681 0.285622 -0.041703
v 0.752057 -0.448328 0.095223
v 1.642385 1.456098 -2.054220
v -0.599117 -0.448328 -0.464452
v 0.291211 1.456098 -2.613894
v 0.005726 -0.491207 -0.013824
v 0.983206 0.929140 -0.462822
v 1.001788 1.582533 -2.418529
v -0.367967 0.929140 -1.022496
v 0.289615 1.005916 -0.699192
v 1.314537 1.353601 -1.262724
v -0.036637 1.353600 -1.822398
v 0.644441 1.468002 -1.555819
v -0.580634 0.265284 -0.509073
v 0.770540 0.265284 0.050601
v 0.041703 0.285622 -0.100681
v 0.883245 -0.600534 0.495613
v 3.808253 0.079419 -2.429395
v -0.495613 -0.600534 -0.883245
v 2.429394 0.079419 -3.808253
v 0.017039 -0.500534 -0.017039
v 2.095703 0.830222 -0.716845
v 3.260245 0.179420 -3.260245
v 0.716845 0.830222 -2.095703
v 1.406274 0.980222 -1.406274
v 3.038381 0.679513 -1.659523
v 1.659523 0.679512 -3.038381
v 2.419662 0.829512 -2.419663
v -0.089043 0.371011 -1.289815
v 1.289815 0.371011 0.089043
v 0.494320 0.521011 -0.494320
v -0.883245 -0.600534 -0.495613
v -3.808252 0.079419 2.429396
v 0.495614 -0.600534 0.883245
v -2.429393 0.079419 3.808254
v -0.017039 -0.500534 0.017039
v -2.095703 0.830222 0.716846
v -3.260244 0.179419 3.260247
v -0.716844 0.830222 2.095704
v -1.406274 0.980222 1.406275
v -3.038381 0.679512 1.659524
v -1.659522 0.679512 3.038382
v -2.419662 0.829512 2.419664
v 0.089044 0.371011 1.289815
v -1.289815 0.371011 -0.089043
v -0.494320 0.521011 0.494320
v -0.752057 -0.448328 -0.095222
v -1.642384 1.456098 2.054221
v 0.599117 -0.448328 0.464451
v -0.291209 1.456098 2.613895
v -0.005726 -0.491207 0.013824
v -0.983206 0.929140 0.462823
v -1.001786 1.582532 2.418530
v 0.367968 0.929140 1.022496
v -0.289614 1.005916 0.699193
v -1.314536 1.353600 1.262725
v 0.036639 1.353600 1.822398
v -0.644440 1.468001 1.555819
v 0.580635 0.265284 0.509073
v -0.770540 0.265284 -0.050601
v -0.041703 0.285622 0.100681
v -0.095222 -0.448328 0.752057
v 2.054222 1.456098 1.642383
v 0.464451 -0.448328 -0.599118
v 2.613895 1.456098 0.291209
v 0.013824 -0.491207 0.005726
v 0.462823 0.929140 0.983206
v 2.418531 1.582532 1.001785
v 1.022496 0.929140 -0.367968
v 0.699193 1.005916 0.289614
v 1.262725 1.353600 1.314535
v 1.822398 1.353600 -0.036639
v 1.555820 1.468001 0.644440
v 0.509072 0.265284 -0.580635
v -0.050601 0.265284 0.770540
v 0.100681 0.285622 0.041703
v -0.495613 -0.600534 0.883246
v 2.429398 0.079419 3.808251
v 0.883245 -0.600534 -0.495614
v 3.808255 0.079419 2.429392
v 0.017039 -0.500534 0.017039
v 0.716847 0.830222 2.095703
v 3.260248 0.179419 3.260243
v 2.095704 0.830222 0.716844
v 1.406275 0.980222 1.406273
v 1.659526 0.679512 3.038380
v 3.038383 0.679512 1.659521
v 2.419665 0.829512 2.419661
v 1.289815 0.371011 -0.089044
v -0.089042 0.371011 1.289815
v 0.494320 0.521011 0.494319
v 0.495613 -0.600534 -0.883245
v -2.429395 0.079419 -3.808253
v -0.883245 -0.600534 0.495613
v -3.808253 0.079419 -2.429394
v -0.017039 -0.500534 -0.017039
v -0.716845 0.830222 -2.095703
v -3.260245 0.179419 -3.260245
v -2.095703 0.830222 -0.716845
v -1.406274 0.980222 -1.406274
v -1.659523 0.679512 -3.038381
v -3.038381 0.679512 -1.659523
v -2.419663 0.829512 -2.419663
v -1.289815 0.371011 0.089043
v 0.089043 0.371011 -1.289815
v -0.494320 0.521011 -0.494320
v 0.095223 -0.448328 -0.752057
v -2.054220 1.456098 -1.642385
v -0.464452 -0.448328 0.599117
v -2.613895 1.456097 -0.291212
v -0.013824 -0.491207 -0.005726
v -0.462822 0.929140 -0.983207
v -2.418530 1.582532 -1.001788
v -1.022497 0.929140 0.367967
v -0.699192 1.005916 -0.289615
v -1.262724 1.353600 -1.314537
v -1.822398 1.353600 0.036637
v -1.555819 1.468001 -0.644441
v -0.509073 0.265284 0.580634
v 0.050602 0.265284 -0.770539
v -0.100681 0.285622 -0.041703
v 0.599117 -0.448328 -0.464452
v -0.291212 1.456098 -2.613895
v -0.752057 -0.448328 0.095223
v -1.642385 1.456098 -2.054220
v -0.005726 -0.491207 -0.013824
v 0.367967 0.929140 -1.022497
v -1.001788 1.582532 -2.418530
v -0.983207 0.929140 -0.462822
v -0.289615 1.005916 -0.699192
v 0.036637 1.353600 -1.822398
v -1.314537 1.353600 -1.262724
v -0.644442 1.468001 -1.555819
v -0.770540 0.265284 0.050602
v 0.580634 0.265284 -0.509073
v -0.041704 0.285622 -0.100681
v 0.975000 -0.600534 -0.274097
v 0.975000 0.079419 -4.410683
v -0.975000 -0.600534 -0.274097
v -0.975000 0.079419 -4.410683
v -0.000000 -0.500534 -0.024097
v 0.975000 0.830222 -1.988772
v -0.000000 0.179419 -4.610683
v -0.975000 0.830222 -1.988772
v -0.000000 0.980222 -1.988772
v 0.975000 0.679512 -3.321920
v -0.975000 0.679512 -3.321920
v -0.000000 0.829512 -3.421920
v -0.975000 0.371011 -0.849074
v 0.975000 0.371011 -0.849074
v -0.000000 0.521011 -0.699074
v -0.975000 -0.600534 0.274098
v -0.974998 0.079419 4.410683
v 0.975000 -0.600534 0.274097
v 0.975002 0.079419 4.410683
v 0.000000 -0.500534 0.024097
v -0.974999 0.830222 1.988773
v 0.000002 0.179419 4.610683
v 0.975001 0.830222 1.988771
v 0.000001 0.980222 1.988772
v -0.974999 0.679512 3.321920
v 0.975001 0.679512 3.321919
v 0.000002 0.829512 3.421920
v 0.975000 0.371011 0.849074
v -0.975000 0.371011 0.849074
v 0.000000 0.521011 0.699074
v -0.599117 -0.448328 0.464452
v 0.291213 1.456098 2.613895
v 0.752057 -0.448328 -0.095223
v 1.642386 1.456098 2.054219
v 0.005726 -0.491207 0.013824
v -0.367967 0.929140 1.022497
v 1.001789 1.582532 2.418529
v 0.983207 0.929140 0.462822
v 0.289615 1.005916 0.699192
v -0.036636 1.353600 1.822398
v 1.314538 1.353600 1.262723
v 0.644442 1.468001 1.555819
v 0.770539 0.265284 -0.050602
v -0.580634 0.265284 0.509073
v 0.041704 0.285622 0.100681
v -0.464452 -0.448328 -0.599117
v -2.613894 1.456098 0.291213
v 0.095223 -0.448328 0.752057
v -2.054219 1.456098 1.642386
v -0.013824 -0.491207 0.005726
v -1.022497 0.929140 -0.367967
v -2.418529 1.582532 1.001789
v -0.462822 0.929140 0.983207
v -0.699192 1.005916 0.289615
v -1.822398 1.353600 -0.036636
v -1.262723 1.353600 1.314537
v -1.555819 1.468002 0.644442
v 0.050602 0.265284 0.770539
v -0.509073 0.265284 -0.580634
v -0.100681 0.285622 0.041704
v -0.274097 -0.600534 -0.975000
v -4.410683 0.079419 -0.974999
v -0.274097 -0.600534 0.975000
v -4.410683 0.079419 0.975001
v -0.024097 -0.500534 0.000000
v -1.988772 0.830222 -0.974999
v -4.610683 0.179419 0.000001
v -1.988772 0.830222 0.975001
v -1.988772 0.980222 0.000001
v -3.321920 0.679512 -0.974999
v -3.321920 0.679512 0.975001
v -3.421920 0.829512 0.000001
v -0.849074 0.371011 0.975000
v -0.849074 0.371011 -0.975000
v -0.699074 0.521011 0.000000
v 0.274097 -0.600534 0.975000
v 4.410683 0.079419 0.975000
v 0.274097 -0.600534 -0.975000
v 4.410683 0.079419 -0.975000
v 0.024097 -0.500534 0.000000
v 1.988772 0.830222 0.975000
v 4.610683 0.179420 0.000000
v 1.988772 0.830222 -0.975000
v 1.988772 0.980222 0.000000
v 3.321920 0.679512 0.975000
v 3.321920 0.679513 -0.975000
v 3.421920 0.829512 0.000000
v 0.849074 0.371011 -0.975000
v 0.849074 0.371011 0.975000
v 0.699074 0.521011 0.000000
vt 0.500000 0.750000
vt 0.500000 1.000000
vt -0.000000 1.000000
vt -0.000000 0.750000
vt 0.500000 0.250000
vt 0.500000 0.500000
vt 0.000000 0.500000
vt -0.000000 0.250000
vt 1.000000 0.250000
vt 1.000000 0.500000
vt 1.000000 0.750000
vt 1.000000 1.000000
vt 1.000000 -0.000000
vt 0.500000 -0.000000
vt 0.000000 0.000000
vt 0.500000 0.750000
vt 0.500000 1.000000
vt -0.000000 1.000000
vt -0.000000 0.750000
vt 0.500000 0.250000
vt 0.500000 0.500000
vt 0.000000 0.500000
vt -0.000000 0.250000
vt 1.000000 0.250000
vt 1.000000 0.500000
vt 1.000000 0.750000
vt 1.000000 1.000000
vt 1.000000 -0.000000
vt 0.500000 -0.000000
vt 0.000000 0.000000
vt 0.500000 0.750000
vt 0.500000 1.000000
vt -0.000000 1.000000
vt -0.000000 0.750000
vt 0.500000 0.250000
vt 0.500000 0.500000
vt 0.000000 0.500000
vt -0.000000 0.250000
vt 1.000000 0.250000
vt 1.000000 0.500000
vt 1.000000 0.750000
vt 1.000000 1.000000
vt 1.000000 -0.000000
vt 0.500000 -0.000000
vt 0.000000 0.000000
vt 0.500000 0.750000
vt 0.500000 1.000000
vt -0.000000 1.000000
vt -0.000000 0.750000
vt 0.500000 0.250000
vt 0.500000 0.500000
vt 0.000000 0.500000
vt -0.000000 0.250000
vt 1.000000 0.250000
vt 1.000000 0.500000
vt 1.000000 0.750000
vt 1.000000 1.000000
vt 1.000000 -0.000000
vt 0.500000 -0.000000
vt 0.000000 0.000000
vt 0.500000 0.750000
vt 0.500000 1.000000
vt -0.000000 1.000000
vt -0.000000 0.750000
vt 0.500000 0.250000
vt 0.500000 0.500000
vt 0.000000 0.500000
vt -0.000000 0.250000
vt 1.000000 0.250000
vt 1.000000 0.500000
vt 1.000000 0.750000
vt 1.000000 1.000000
vt 1.000000 -0.000000
vt 0.500000 -0.000000
vt 0.000000 0.000000
vt 0.500000 0.750000
vt 0.500000 1.000000
vt -0.000000 1.000000
vt -0.000000 0.750000
vt 0.500000 0.250000
vt 0.500000 0.500000
vt 0.000000 0.500000
vt -0.000000 0.250000
vt 1.000000 0.250000
vt 1.000000 0.500000
vt 1.000000 0.750000
vt 1.000000 1.000000
vt 1.000000 -0.000000
vt 0.500000 -0.000000
vt 0.000000 0.000000
vt 0.500000 0.750000
vt 0.500000 1.000000
vt -0.000000 1.000000
vt -0.000000 0.750000
vt 0.500000 0.250000
vt 0.500000 0.500000
vt 0.000000 0.500000
vt -0.000000 0.250000
vt 1.000000 0.250000
vt 1.000000 0.500000
vt 1.000000 0.750000
vt 1.000000 1.000000
vt 1.000000 -0.000000
vt 0.500000 -0.000000
vt 0.000000 0.000000
vt 0.500000 0.750000
vt 0.500000 1.000000
vt -0.000000 1.000000
vt -0.000000 0.750000
vt 0.500000 0.250000
vt 0.500000 0.500000
vt 0.000000 0.500000
vt -0.000000 0.250000
vt 1.000000 0.250000
vt 1.000000 0.500000
vt 1.000000 0.750000
vt 1.000000 1.000000
vt 1.000000 -0.000000
vt 0.500000 -0.000000
vt 0.000000 0.000000
vt 0.500000 0.750000
vt 0.500000 1.000000
vt -0.000000 1.000000
vt -0.000000 0.750000
vt 0.500000 0.250000
vt 0.500000 0.500000
vt 0.000000 0.500000
vt -0.000000 0.250000
vt 1.000000 0.250000
vt 1.000000 0.500000
vt 1.000000 0.750000
vt 1.000000 1.000000
vt 1.000000 -0.000000
vt 0.500000 -0.000000
vt 0.000000 0.000000
vt 0.500000 0.750000
vt 0.500000 1.000000
vt -0.000000 1.000000
vt -0.000000 0.750000
vt 0.500000 0.250000
vt 0.500000 0.500000
vt 0.000000 0.500000
vt -0.000000 0.250000
vt 1.000000 0.250000
vt 1.000000 0.500000
vt 1.000000 0.750000
vt 1.000000 1.000000
vt 1.000000 -0.000000
vt 0.500000 -0.000000
vt 0.000000 0.000000
vt 0.500000 0.750000
vt 0.500000 1.000000
vt -0.000000 1.000000
vt -0.000000 0.750000
vt 0.500000 0.250000
vt 0.500000 0.500000
vt 0.000000 0.500000
vt -0.000000 0.250000
vt 1.000000 0.250000
vt 1.000000 0.500000
vt 1.000000 0.750000
vt 1.000000 1.000000
vt 1.000000 -0.000000
vt 0.500000 -0.000000
vt 0.000000 0.000000
vt 0.500000 0.750000
vt 0.500000 1.000000
vt -0.000000 1.000000
vt -0.000000 0.750000
vt 0.500000 0.250000
vt 0.500000 0.500000
vt 0.000000 0.500000
vt -0.000000 0.250000
vt 1.000000 0.250000
vt 1.000000 0.500000
vt 1.000000 0.750000
vt 1.000000 1.000000
vt 1.000000 -0.000000
vt 0.500000 -0.000000
vt 0.000000 0.000000
vt 0.500000 0.750000
vt 0.500000 1.000000
vt -0.000000 1.000000
vt -0.000000 0.750000
vt 0.500000 0.250000
vt 0.500000 0.500000
vt 0.000000 0.500000
vt -0.000000 0.250000
vt 1.000000 0.250000
vt 1.000000 0.500000
vt 1.000000 0.750000
vt 1.000000 1.000000
vt 1.000000 -0.000000
vt 0.500000 -0.000000
vt 0.000000 0.000000
vt 0.500000 0.750000
vt 0.500000 1.000000
vt -0.000000 1.000000
vt -0.000000 0.750000
vt 0.500000 0.250000
vt 0.500000 0.500000
vt 0.000000 0.500000
vt -0.000000 0.250000
vt 1.000000 0.250000
vt 1.000000 0.500000
vt 1.000000 0.750000
vt 1.000000 1.000000
vt 1.000000 -0.000000
vt 0.500000 -0.000000
vt 0.000000 0.000000
vt 0.500000 0.750000
vt 0.500000 1.000000
vt -0.000000 1.000000
vt -0.000000 0.750000
vt 0.500000 0.250000
vt 0.500000 0.500000
vt 0.000000 0.500000
vt -0.000000 0.250000
vt 1.000000 0.250000
vt 1.000000 0.500000
vt 1.000000 0.750000
vt 1.000000 1.000000
vt 1.000000 -0.000000
vt 0.500000 -0.000000
vt 0.000000 0.000000
vt 0.500000 0.750000
vt 0.500000 1.000000
vt -0.000000 1.000000
vt -0.000000 0.750000
vt 0.500000 0.250000
vt 0.500000 0.500000
vt 0.000000 0.500000
vt -0.000000 0.250000
vt 1.000000 0.250000
vt 1.000000 0.500000
vt 1.000000 0.750000
vt 1.000000 1.000000
vt 1.000000 -0.000000
vt 0.500000 -0.000000
vt 0.000000 0.000000
vn -0.1684 0.9811 -0.0958
vn -0.7434 0.6499 0.1582
vn -0.6376 0.6499 0.4138
vn -0.0513 0.9811 0.1868
vn -0.3580 0.8893 0.2847
vn -0.4545 0.8893 0.0518
vn -0.8165 0.0928 0.5698
vn -0.9803 0.0928 0.1744
vn -0.1868 0.9811 0.0513
vn -0.4138 0.6499 0.6376
vn -0.1582 0.6499 0.7434
vn 0.0958 0.9811 0.1684
vn -0.0518 0.8893 0.4545
vn -0.2847 0.8893 0.3580
vn -0.1744 0.0928 0.9803
vn -0.5698 0.0928 0.8165
vn 0.2049 0.8618 -0.4641
vn -0.3657 0.9220 0.1272
vn -0.1272 0.9220 0.3657
vn 0.4641 0.8618 -0.2049
vn 0.1863 0.9819 0.0350
vn -0.0350 0.9819 -0.1863
vn -0.4160 0.5164 0.7485
vn -0.7485 0.5164 0.4160
vn -0.2049 0.8618 0.4641
vn 0.3657 0.9220 -0.1272
vn 0.1272 0.9220 -0.3657
vn -0.4641 0.8618 0.2049
vn -0.1863 0.9819 -0.0350
vn 0.0350 0.9819 0.1863
vn 0.4160 0.5164 -0.7485
vn 0.7485 0.5164 -0.4160
vn 0.1868 0.9811 -0.0513
vn 0.4138 0.6499 -0.6376
vn 0.1582 0.6499 -0.7434
vn -0.0958 0.9811 -0.1684
vn 0.0518 0.8893 -0.4545
vn 0.2847 0.8893 -0.3580
vn 0.1744 0.0928 -0.9803
vn 0.5698 0.0928 -0.8165
vn -0.0513 0.9811 -0.1868
vn -0.6376 0.6499 -0.4138
vn -0.7434 0.6499 -0.1582
vn -0.1684 0.9811 0.0958
vn -0.4545 0.8893 -0.0518
vn -0.3580 0.8893 -0.2847
vn -0.9803 0.0928 -0.1744
vn -0.8165 0.0928 -0.5698
vn 0.4641 0.8618 0.2049
vn -0.1272 0.9220 -0.3657
vn -0.3657 0.9220 -0.1272
vn 0.2049 0.8618 0.4641
vn -0.0350 0.9819 0.1863
vn 0.1863 0.9819 -0.0350
vn -0.7485 0.5164 -0.4160
vn -0.4160 0.5164 -0.7485
vn -0.4641 0.8618 -0.2049
vn 0.1272 0.9220 0.3657
vn 0.3657 0.9220 0.1272
vn -0.2049 0.8618 -0.4641
vn 0.0350 0.9819 -0.1863
vn -0.1863 0.9819 0.0350
vn 0.7485 0.5164 0.4160
vn 0.4160 0.5164 0.7485
vn 0.0513 0.9811 0.1868
vn 0.6376 0.6499 0.4138
vn 0.7434 0.6499 0.1582
vn 0.1684 0.9811 -0.0958
vn 0.4545 0.8893 0.0518
vn 0.3580 0.8893 0.2847
vn 0.9803 0.0928 0.1744
vn 0.8165 0.0928 0.5698
vn -0.0958 0.9811 0.1684
vn 0.1582 0.6499 0.7434
vn 0.4138 0.6499 0.6376
vn 0.1868 0.9811 0.0513
vn 0.2847 0.8893 0.3580
vn 0.0518 0.8893 0.4545
vn 0.5698 0.0928 0.8165
vn 0.1744 0.0928 0.9803
vn -0.1833 0.8618 -0.4730
vn -0.1687 0.9220 0.3486
vn 0.1687 0.9220 0.3486
vn 0.1833 0.8618 -0.4730
vn 0.1565 0.9819 -0.1070
vn -0.1565 0.9819 -0.1070
vn 0.2351 0.5164 0.8234
vn -0.2351 0.5164 0.8234
vn 0.1833 0.8618 0.4730
vn 0.1687 0.9220 -0.3486
vn -0.1687 0.9220 -0.3486
vn -0.1833 0.8618 0.4730
vn -0.1565 0.9819 0.1070
vn 0.1565 0.9819 0.1070
vn -0.2351 0.5164 -0.8234
vn 0.2351 0.5164 -0.8234
vn 0.0958 0.9811 -0.1684
vn -0.1582 0.6499 -0.7434
vn -0.4138 0.6499 -0.6376
vn -0.1868 0.9811 -0.0513
vn -0.2847 0.8893 -0.3580
vn -0.0518 0.8893 -0.4545
vn -0.5698 0.0928 -0.8165
vn -0.1744 0.0928 -0.9803
vn 0.1684 0.9811 0.0958
vn 0.7434 0.6499 -0.1582
vn 0.6376 0.6499 -0.4138
vn 0.0513 0.9811 -0.1868
vn 0.3580 0.8893 -0.2847
vn 0.4545 0.8893 -0.0518
vn 0.8165 0.0928 -0.5698
vn 0.9803 0.0928 -0.1744
vn -0.4730 0.8618 0.1833
vn 0.3486 0.9220 0.1687
vn 0.3486 0.9220 -0.1687
vn -0.4730 0.8618 -0.1833
vn -0.1070 0.9819 -0.1565
vn -0.1070 0.9819 0.1565
vn 0.8234 0.5164 -0.2351
vn 0.8234 0.5164 0.2351
vn 0.4730 0.8618 -0.1833
vn -0.3486 0.9220 -0.1687
vn -0.3486 0.9220 0.1687
vn 0.4730 0.8618 0.1833
vn 0.1070 0.9819 0.1565
vn 0.1070 0.9819 -0.1565
vn -0.8234 0.5164 0.2351
vn -0.8234 0.5164 -0.2351
usemtl None
s off
f 12/1/1 7/2/1 4/3/1 11/4/1
f 15/5/2 9/6/2 8/7/2 13/8/2
f 14/9/3 6/10/3 9/6/3 15/5/3
f 10/11/4 2/12/4 7/2/4 12/1/4
f 6/10/5 10/11/5 12/1/5 9/6/5
f 9/6/6 12/1/6 11/4/6 8/7/6
f 1/13/7 14/9/7 15/5/7 5/14/7
f 5/14/8 15/5/8 13/8/8 3/15/8
f 27/16/9 22/17/9 19/18/9 26/19/9
f 30/20/10 24/21/10 23/22/10 28/23/10
f 29/24/11 21/25/11 24/21/11 30/20/11
f 25/26/12 17/27/12 22/17/12 27/16/12
f 21/25/13 25/26/13 27/16/13 24/21/13
f 24/21/14 27/16/14 26/19/14 23/22/14
f 16/28/15 29/24/15 30/20/15 20/29/15
f 20/29/16 30/20/16 28/23/16 18/30/16
f 42/31/17 37/32/17 34/33/17 41/34/17
f 45/35/18 39/36/18 38/37/18 43/38/18
f 44/39/19 36/40/19 39/36/19 45/35/19
f 40/41/20 32/42/20 37/32/20 42/31/20
f 36/40/21 40/41/21 42/31/21 39/36/21
f 39/36/22 42/31/22 41/34/22 38/37/22
f 31/43/23 44/39/23 45/35/23 35/44/23
f 35/44/24 45/35/24 43/38/24 33/45/24
f 57/46/25 52/47/25 49/48/25 56/49/25
f 60/50/26 54/51/26 53/52/26 58/53/26
f 59/54/27 51/55/27 54/51/27 60/50/27
f 55/56/28 47/57/28 52/47/28 57/46/28
f 51/55/29 55/56/29 57/46/29 54/51/29
f 54/51/30 57/46/30 56/49/30 53/52/30
f 46/58/31 59/54/31 60/50/31 50/59/31
f 50/59/32 60/50/32 58/53/32 48/60/32
f 72/61/33 67/62/33 64/63/33 71/64/33
f 75/65/34 69/66/34 68/67/34 73/68/34
f 74/69/35 66/70/35 69/66/35 75/65/35
f 70/71/36 62/72/36 67/62/36 72/61/36
f 66/70/37 70/71/37 72/61/37 69/66/37
f 69/66/38 72/61/38 71/64/38 68/67/38
f 61/73/39 74/69/39 75/65/39 65/74/39
f 65/74/40 75/65/40 73/68/40 63/75/40
f 87/76/41 82/77/41 79/78/41 86/79/41
f 90/80/42 84/81/42 83/82/42 88/83/42
f 89/84/43 81/85/43 84/81/43 90/80/43
f 85/86/44 77/87/44 82/77/44 87/76/44
f 81/85/45 85/86/45 87/76/45 84/81/45
f 84/81/46 87/76/46 86/79/46 83/82/46
f 76/88/47 89/84/47 90/80/47 80/89/47
f 80/89/48 90/80/48 88/83/48 78/90/48
f 102/91/49 97/92/49 94/93/49 101/94/49
f 105/95/50 99/96/50 98/97/50 103/98/50
f 104/99/51 96/100/51 99/96/51 105/95/51
f 100/101/52 92/102/52 97/92/52 102/91/52
f 96/100/53 100/101/53 102/91/53 99/96/53
f 99/96/54 102/91/54 101/94/54 98/97/54
f 91/103/55 104/99/55 105/95/55 95/104/55
f 95/104/56 105/95/56 103/98/56 93/105/56
f 117/106/57 112/107/57 109/108/57 116/109/57
f 120/110/58 114/111/58 113/112/58 118/113/58
f 119/114/59 111/115/59 114/111/59 120/110/59
f 115/116/60 107/117/60 112/107/60 117/106/60
f 111/115/61 115/116/61 117/106/61 114/111/61
f 114/111/62 117/106/62 116/109/62 113/112/62
f 106/118/63 119/114/63 120/110/63 110/119/63
f 110/119/64 120/110/64 118/113/64 108/120/64
f 132/121/65 127/122/65 124/123/65 131/124/65
f 135/125/66 129/126/66 128/127/66 133/128/66
f 134/129/67 126/130/67 129/126/67 135/125/67
f 130/131/68 122/132/68 127/122/68 132/121/68
f 126/130/69 130/131/69 132/121/69 129/126/69
f 129/126/70 132/121/70 131/124/70 128/127/70
f 121/133/71 134/129/71 135/125/71 125/134/71
f 125/134/72 135/125/72 133/128/72 123/135/72
f 147/136/73 142/137/73 139/138/73 146/139/73
f 150/140/74 144/141/74 143/142/74 148/143/74
f 149/144/75 141/145/75 144/141/75 150/140/75
f 145/146/76 137/147/76 142/137/76 147/136/76
f 141/145/77 145/146/77 147/136/77 144/141/77
f 144/141/78 147/136/78 146/139/78 143/142/78
f 136/148/79 149/144/79 150/140/79 140/149/79
f 140/149/80 150/140/80 148/143/80 138/150/80
f 162/151/81 157/152/81 154/153/81 161/154/81
f 165/155/82 159/156/82 158/157/82 163/158/82
f 164/159/83 156/160/83 159/156/83 165/155/83
f 160/161/84 152/162/84 157/152/84 162/151/84
f 156/160/85 160/161/85 162/151/85 159/156/85
f 159/156/86 162/151/86 161/154/86 158/157/86
f 151/163/87 164/159/87 165/155/87 155/164/87
f 155/164/88 165/155/88 163/158/88 153/165/88
f 177/166/89 172/167/89 169/168/89 176/169/89
f 180/170/90 174/171/90 173/172/90 178/173/90
f 179/174/91 171/175/91 174/171/91 180/170/91
f 175/176/92 167/177/92 172/167/92 177/166/92
f 171/175/93 175/176/93 177/166/93 174/171/93
f 174/171/94 177/166/94 176/169/94 173/172/94
f 166/178/95 179/174/95 180/170/95 170/179/95
f 170/179/96 180/170/96 178/173/96 168/180/96
f 192/181/97 187/182/97 184/183/97 191/184/97
f 195/185/98 189/186/98 188/187/98 193/188/98
f 194/189/99 186/190/99 189/186/99 195/185/99
f 190/191/100 182/192/100 187/182/100 192/181/100
f 186/190/101 190/191/101 192/181/101 189/186/101
f 189/186/102 192/181/102 191/184/102 188/187/102
f 181/193/103 194/189/103 195/185/103 185/194/103
f 185/194/104 195/185/104 193/188/104 183/195/104
f 207/196/105 202/197/105 199/198/105 206/199/105
f 210/200/106 204/201/106 203/202/106 208/203/106
f 209/204/107 201/205/107 204/201/107 210/200/107
f 205/206/108 197/207/108 202/197/108 207/196/108
f 201/205/109 205/206/109 207/196/109 204/201/109
f 204/201/110 207/196/110 206/199/110 203/202/110
f 196/208/111 209/204/111 210/200/111 200/209/111
f 200/209/112 210/200/112 208/203/112 198/210/112
f 222/211/113 217/212/113 214/213/113 221/214/113
f 225/215/114 219/216/114 218/217/114 223/218/114
f 224/219/115 216/220/115 219/216/115 225/215/115
f 220/221/116 212/222/116 217/212/116 222/211/116
f 216/220/117 220/221/117 222/211/117 219/216/117
f 219/216/118 222/211/118 221/214/118 218/217/118
f 211/223/119 224/219/119 225/215/119 215/224/119
f 215/224/120 225/215/120 223/218/120 213/225/120
f 237/226/121 232/227/121 229/228/121 236/229/121
f 240/230/122 234/231/122 233/232/122 238/233/122
f 239/234/123 231/235/123 234/231/123 240/230/123
f 235/236/124 227/237/124 232/227/124 237/226/124
f 231/235/125 235/236/125 237/226/125 234/231/125
f 234/231/126 237/226/126 236/229/126 233/232/126
f 226/238/127 239/234/127 240/230/127 230/239/127
f 230/239/128 240/230/128 238/233/128 228/240/128
