# Blender v2.79 (sub 0) OBJ File: ''
# www.blender.org
o Plane
v -0.072005 0.530174 1.095892
v 1.096751 0.527294 -0.068798
v -1.095517 0.532705 0.068800
v 0.073239 0.529825 -1.095890
v -0.586895 -0.738557 0.582341
v 0.581860 -0.741437 -0.582349
v -0.583094 0.801438 0.582347
v 0.585661 0.798559 -0.582343
v 1.096505 0.527294 0.072623
v -0.068182 0.530174 -1.096136
v 0.069416 0.529825 1.096138
v -1.095270 0.532704 -0.072621
v 0.579826 -0.741437 0.584375
v -0.584861 -0.738557 -0.584384
v 0.583627 0.798559 0.584382
v -0.581060 0.801438 -0.584377
vt -0.000000 -0.000000
vt 1.000000 -0.000000
vt 1.000000 1.000000
vt -0.000000 1.000000
vt 0.000000 1.000000
vt 1.000000 1.000000
vt 1.000000 -0.000000
vt -0.000000 -0.000000
vt -0.000000 1.000000
vt 1.000000 1.000000
vt -0.000000 -0.000000
vt 1.000000 -0.000000
vt 1.000000 1.000000
vt -0.000000 1.000000
vt 0.000000 1.000000
vt 1.000000 1.000000
vt 1.000000 -0.000000
vt -0.000000 -0.000000
vt -0.000000 1.000000
vt 1.000000 1.000000
vn 0.6142 0.4943 0.6152
vn -0.6118 0.4973 -0.6152
vn 0.7059 -0.0017 0.7083
vn 0.6164 0.4943 -0.6130
vn -0.6139 0.4973 0.6130
vn 0.7083 -0.0017 -0.7059
usemtl None
s off
f 5/1/1 6/2/1 4/3/1 3/4/1
f 1/5/2 2/6/2 6/2/2 5/1/2
f 5/7/3 6/8/3 8/9/3 7/10/3
f 13/11/4 14/12/4 12/13/4 11/14/4
f 9/15/5 10/16/5 14/12/5 13/11/5
f 13/17/6 14/18/6 16/19/6 15/20/6
