# Blender v2.79 (sub 0) OBJ File: ''
# www.blender.org
o Plane.001
v 0.531255 -0.500000 0.529404
v -0.531255 -0.500000 -0.529404
v -0.531255 1.000000 -0.529404
v 0.531255 1.000000 0.529404
v 1.024776 0.750000 0.033982
v -0.037734 0.750000 -1.024825
v -1.024776 0.750000 -0.033982
v 0.037734 0.750000 1.024825
v -0.529404 -0.500000 0.531255
v 0.529404 -0.500000 -0.531255
v 0.529404 1.000000 -0.531255
v -0.529404 1.000000 0.531255
v -1.024825 0.750000 0.037734
v 0.033982 0.750000 -1.024776
v 1.024825 0.750000 -0.037734
v -0.033982 0.750000 1.024776
vt 0.000000 0.000000
vt 1.000000 0.000000
vt 1.000000 1.000000
vt 0.000000 1.000000
vt 0.000000 0.000000
vt 1.000000 0.000000
vt 1.000000 1.000000
vt 0.000000 1.000000
vt 1.000000 1.000000
vt 0.000000 1.000000
vt 0.000000 0.000000
vt 1.000000 0.000000
vt 1.000000 1.000000
vt 0.000000 1.000000
vt 0.000000 0.000000
vt 1.000000 0.000000
vt 1.000000 1.000000
vt 0.000000 1.000000
vt 1.000000 1.000000
vt 0.000000 1.000000
vn 0.7059 0.0000 -0.7083
vn -0.6160 0.4882 0.6182
vn 0.6160 0.4882 -0.6182
vn 0.7083 -0.0000 0.7059
vn -0.6182 -0.4882 -0.6160
vn 0.6182 -0.4882 0.6160
usemtl None
s 1
f 1/1/1 2/2/1 3/3/1 4/4/1
f 2/5/2 1/6/2 5/7/2 6/8/2
f 1/1/3 2/2/3 7/9/3 8/10/3
f 9/11/4 10/12/4 11/13/4 12/14/4
f 10/15/5 9/16/5 13/17/5 14/18/5
f 9/11/6 10/12/6 15/19/6 16/20/6
